<svg xmlns="http://www.w3.org/2000/svg" xmlns:xlink="http://www.w3.org/1999/xlink" width="215.363" height="212.64" viewBox="0 0 215.363 212.64">
  <defs>
    <clipPath id="clip-path">
      <path id="Path_3" data-name="Path 3" d="M618.852,105.56s-9.572,24.32-6.052,21.6a72.288,72.288,0,0,0,7.68-7.36s-13.76,28.16-6.24,31.36,20.16-9.6,20.16-9.6-6.88,14.24-.8,11.36,38.88-25.76,38.88-25.76-.64,14.24-6.72,24-15.04,22.88-10.88,23.52,31.52-1.6,31.52-1.6-13.6,3.04-9.6,4.8a62.9,62.9,0,0,0,8.32,2.88s-31.36,9.76-27.84,10.72,15.2,3.04,15.2,3.04-17.28,6.24-12.8,8.16,41.92,11.84,42.24,11.84-29.76,1.76-21.6,3.84,14.88,3.36,14.88,3.36-38.72,2.72-36.48,8.8,0,9.44,0,9.44-9.44-.8-5.44,1.76,29.6,17.76,29.6,17.76-20.64-2.08-29.6-6.88,1.6,8,1.6,8-10.24-7.84-11.52-3.68-2.72,13.76-1.28,16-7.68-8.96-10.4-5.28a9.788,9.788,0,0,0-1.92,7.36s-5.44-7.36-8.16-3.52-7.36,16.32-7.36,16.32-3.52-15.52-7.52-11.36-1.44,20.96-1.44,20.96-3.68-18.72-5.92-16.16-1.92,24.96-1.92,24.96-3.68-24.64-10.08-24.96-8.96-5.12-10.88-4.8-9.28,8.32-11.2,11.36,4-9.44,0-11.36-3.36-8.64-7.52-6.56-23.2,20.8-23.2,20.8,7.36-21.76,4-26.08-22.4,5.28-22.4,5.28,19.68-12.64,13.44-14.56-10.08-2.4-16-9.12,11.04-8.32,7.36-12.32-22.4-10.08-22.4-10.08,20.48-3.2,22.4-10.4-18.72-23.52-19.36-23.84,25.28,11.04,30.88,0-15.36-42.72-15.36-42.72,26.56,16,34.72,9.28.8-34.72.8-34.72,10.4,28.32,13.92,28.96,4.48-4.32,7.04-4.64,5.6,6.08,8.16,1.12,11.2-37.12,11.2-37.12.48,41.12,3.2,39.52S618.852,105.56,618.852,105.56Z" transform="translate(-434 -64)" fill="none"/>
    </clipPath>
    <clipPath id="clip-path-2">
      <circle id="Ellipse_2" data-name="Ellipse 2" cx="61.5" cy="61.5" r="61.5" transform="translate(96 89)" fill="#101534"/>
    </clipPath>
    <clipPath id="clip-path-3">
      <circle id="Ellipse_4" data-name="Ellipse 4" cx="28.5" cy="28.5" r="28.5" transform="translate(144 107)" fill="rgba(17,59,96,0.85)"/>
    </clipPath>
  </defs>
  <g id="Group_1" data-name="Group 1" transform="translate(-58.56 -35.56)">
    <g id="Mask_Group_3" data-name="Mask Group 3" clip-path="url(#clip-path)">
      <path id="Path_2" data-name="Path 2" d="M618.852,105.56s-9.572,24.32-6.052,21.6a72.288,72.288,0,0,0,7.68-7.36s-13.76,28.16-6.24,31.36,20.16-9.6,20.16-9.6-6.88,14.24-.8,11.36,38.88-25.76,38.88-25.76-.64,14.24-6.72,24-15.04,22.88-10.88,23.52,31.52-1.6,31.52-1.6-13.6,3.04-9.6,4.8a62.9,62.9,0,0,0,8.32,2.88s-31.36,9.76-27.84,10.72,15.2,3.04,15.2,3.04-17.28,6.24-12.8,8.16,41.92,11.84,42.24,11.84-29.76,1.76-21.6,3.84,14.88,3.36,14.88,3.36-38.72,2.72-36.48,8.8,0,9.44,0,9.44-9.44-.8-5.44,1.76,29.6,17.76,29.6,17.76-20.64-2.08-29.6-6.88,1.6,8,1.6,8-10.24-7.84-11.52-3.68-2.72,13.76-1.28,16-7.68-8.96-10.4-5.28a9.788,9.788,0,0,0-1.92,7.36s-5.44-7.36-8.16-3.52-7.36,16.32-7.36,16.32-3.52-15.52-7.52-11.36-1.44,20.96-1.44,20.96-3.68-18.72-5.92-16.16-1.92,24.96-1.92,24.96-3.68-24.64-10.08-24.96-8.96-5.12-10.88-4.8-9.28,8.32-11.2,11.36,4-9.44,0-11.36-3.36-8.64-7.52-6.56-23.2,20.8-23.2,20.8,7.36-21.76,4-26.08-22.4,5.28-22.4,5.28,19.68-12.64,13.44-14.56-10.08-2.4-16-9.12,11.04-8.32,7.36-12.32-22.4-10.08-22.4-10.08,20.48-3.2,22.4-10.4-18.72-23.52-19.36-23.84,25.28,11.04,30.88,0-15.36-42.72-15.36-42.72,26.56,16,34.72,9.28.8-34.72.8-34.72,10.4,28.32,13.92,28.96,4.48-4.32,7.04-4.64,5.6,6.08,8.16,1.12,11.2-37.12,11.2-37.12.48,41.12,3.2,39.52S618.852,105.56,618.852,105.56Z" transform="translate(-434 -64)" fill="rgba(1,51,66,0.88)" stroke="#00113a" stroke-width="6"/>
      <path id="Path_4" data-name="Path 4" d="M606.989,105.56s-8.628,21.922-5.455,19.47a65.158,65.158,0,0,0,6.923-6.634s-12.4,25.383-5.625,28.267S621,138.01,621,138.01s-6.2,12.836-.721,10.24,35.046-23.219,35.046-23.219-.577,12.836-6.057,21.633-13.557,20.624-9.807,21.2,28.411-1.442,28.411-1.442-12.259,2.74-8.653,4.327a56.7,56.7,0,0,0,7.5,2.6s-28.267,8.8-25.094,9.663,13.7,2.74,13.7,2.74-15.576,5.625-11.538,7.355,37.786,10.672,38.074,10.672-26.825,1.586-19.47,3.461,13.413,3.029,13.413,3.029-34.9,2.452-32.882,7.932,0,8.509,0,8.509-8.509-.721-4.9,1.586S664.7,244.3,664.7,244.3s-18.6-1.875-26.681-6.2,1.442,7.211,1.442,7.211-9.23-7.067-10.384-3.317-2.452,12.4-1.154,14.422-6.923-8.076-9.374-4.759a8.823,8.823,0,0,0-1.731,6.634s-4.9-6.634-7.355-3.173-6.634,14.71-6.634,14.71-3.173-13.989-6.778-10.24-1.3,18.893-1.3,18.893-3.317-16.874-5.336-14.566-1.731,22.5-1.731,22.5-3.317-22.21-9.086-22.5-8.076-4.615-9.807-4.327-8.365,7.5-10.1,10.24,3.606-8.509,0-10.24-3.029-7.788-6.778-5.913-20.912,18.749-20.912,18.749,6.634-19.614,3.606-23.508-20.191,4.759-20.191,4.759,17.739-11.393,12.115-13.124-9.086-2.163-14.422-8.221,9.951-7.5,6.634-11.1-20.191-9.086-20.191-9.086,18.46-2.884,20.191-9.374-16.874-21.2-17.451-21.489,22.787,9.951,27.835,0-13.845-38.507-13.845-38.507,23.941,14.422,31.3,8.365.721-31.3.721-31.3,9.374,25.527,12.547,26.1,4.038-3.894,6.346-4.182,5.048,5.48,7.355,1.01,10.1-33.459,10.1-33.459.433,37.065,2.884,35.622S606.989,105.56,606.989,105.56Z" transform="translate(-425 -52.212)" fill="#013342" stroke="#00113a" stroke-width="6"/>
      <path id="Path_5" data-name="Path 5" d="M606.989,105.56s-8.628,21.922-5.455,19.47a65.158,65.158,0,0,0,6.923-6.634s-12.4,25.383-5.625,28.267S621,138.01,621,138.01s-6.2,12.836-.721,10.24,35.046-23.219,35.046-23.219-.577,12.836-6.057,21.633-13.557,20.624-9.807,21.2,28.411-1.442,28.411-1.442-12.259,2.74-8.653,4.327a56.7,56.7,0,0,0,7.5,2.6s-28.267,8.8-25.094,9.663,13.7,2.74,13.7,2.74-15.576,5.625-11.538,7.355,37.786,10.672,38.074,10.672-26.825,1.586-19.47,3.461,13.413,3.029,13.413,3.029-34.9,2.452-32.882,7.932,0,8.509,0,8.509-8.509-.721-4.9,1.586S664.7,244.3,664.7,244.3s-18.6-1.875-26.681-6.2,1.442,7.211,1.442,7.211-9.23-7.067-10.384-3.317-2.452,12.4-1.154,14.422-6.923-8.076-9.374-4.759a8.823,8.823,0,0,0-1.731,6.634s-4.9-6.634-7.355-3.173-6.634,14.71-6.634,14.71-3.173-13.989-6.778-10.24-1.3,18.893-1.3,18.893-3.317-16.874-5.336-14.566-1.731,22.5-1.731,22.5-3.317-22.21-9.086-22.5-8.076-4.615-9.807-4.327-8.365,7.5-10.1,10.24,3.606-8.509,0-10.24-3.029-7.788-6.778-5.913-20.912,18.749-20.912,18.749,6.634-19.614,3.606-23.508-20.191,4.759-20.191,4.759,17.739-11.393,12.115-13.124-9.086-2.163-14.422-8.221,9.951-7.5,6.634-11.1-20.191-9.086-20.191-9.086,18.46-2.884,20.191-9.374-16.874-21.2-17.451-21.489,22.787,9.951,27.835,0-13.845-38.507-13.845-38.507,23.941,14.422,31.3,8.365.721-31.3.721-31.3,9.374,25.527,12.547,26.1,4.038-3.894,6.346-4.182,5.048,5.48,7.355,1.01,10.1-33.459,10.1-33.459.433,37.065,2.884,35.622S606.989,105.56,606.989,105.56Z" transform="matrix(0.998, -0.07, 0.07, 0.998, -437.234, -10.564)" fill="rgba(1,66,60,0.75)" stroke="rgba(0,17,58,0.67)" stroke-width="6"/>
      <path id="Path_6" data-name="Path 6" d="M606.989,105.56s-8.628,21.922-5.455,19.47a65.158,65.158,0,0,0,6.923-6.634s-12.4,25.383-5.625,28.267S621,138.01,621,138.01s-6.2,12.836-.721,10.24,35.046-23.219,35.046-23.219-.577,12.836-6.057,21.633-13.557,20.624-9.807,21.2,28.411-1.442,28.411-1.442-12.259,2.74-8.653,4.327a56.7,56.7,0,0,0,7.5,2.6s-28.267,8.8-25.094,9.663,13.7,2.74,13.7,2.74-15.576,5.625-11.538,7.355,37.786,10.672,38.074,10.672-26.825,1.586-19.47,3.461,13.413,3.029,13.413,3.029-34.9,2.452-32.882,7.932,0,8.509,0,8.509-8.509-.721-4.9,1.586S664.7,244.3,664.7,244.3s-18.6-1.875-26.681-6.2,1.442,7.211,1.442,7.211-9.23-7.067-10.384-3.317-2.452,12.4-1.154,14.422-6.923-8.076-9.374-4.759a8.823,8.823,0,0,0-1.731,6.634s-4.9-6.634-7.355-3.173-6.634,14.71-6.634,14.71-3.173-13.989-6.778-10.24-1.3,18.893-1.3,18.893-3.317-16.874-5.336-14.566-1.731,22.5-1.731,22.5-3.317-22.21-9.086-22.5-8.076-4.615-9.807-4.327-8.365,7.5-10.1,10.24,3.606-8.509,0-10.24-3.029-7.788-6.778-5.913-20.912,18.749-20.912,18.749,6.634-19.614,3.606-23.508-20.191,4.759-20.191,4.759,17.739-11.393,12.115-13.124-9.086-2.163-14.422-8.221,9.951-7.5,6.634-11.1-20.191-9.086-20.191-9.086,18.46-2.884,20.191-9.374-16.874-21.2-17.451-21.489,22.787,9.951,27.835,0-13.845-38.507-13.845-38.507,23.941,14.422,31.3,8.365.721-31.3.721-31.3,9.374,25.527,12.547,26.1,4.038-3.894,6.346-4.182,5.048,5.48,7.355,1.01,10.1-33.459,10.1-33.459.433,37.065,2.884,35.622S606.989,105.56,606.989,105.56Z" transform="matrix(0.998, -0.07, 0.07, 0.998, -437.234, -10.564)" fill="rgba(1,66,60,0.68)" stroke="rgba(3,249,249,0.6)" stroke-width="6"/>
    </g>
    <path id="Path_7" data-name="Path 7" d="M618.852,105.56s-9.572,24.32-6.052,21.6a72.288,72.288,0,0,0,7.68-7.36s-13.76,28.16-6.24,31.36,20.16-9.6,20.16-9.6-6.88,14.24-.8,11.36,38.88-25.76,38.88-25.76-.64,14.24-6.72,24-15.04,22.88-10.88,23.52,31.52-1.6,31.52-1.6-13.6,3.04-9.6,4.8a62.9,62.9,0,0,0,8.32,2.88s-31.36,9.76-27.84,10.72,15.2,3.04,15.2,3.04-17.28,6.24-12.8,8.16,41.92,11.84,42.24,11.84-29.76,1.76-21.6,3.84,14.88,3.36,14.88,3.36-38.72,2.72-36.48,8.8,0,9.44,0,9.44-9.44-.8-5.44,1.76,29.6,17.76,29.6,17.76-20.64-2.08-29.6-6.88,1.6,8,1.6,8-10.24-7.84-11.52-3.68-2.72,13.76-1.28,16-7.68-8.96-10.4-5.28a9.788,9.788,0,0,0-1.92,7.36s-5.44-7.36-8.16-3.52-7.36,16.32-7.36,16.32-3.52-15.52-7.52-11.36-1.44,20.96-1.44,20.96-3.68-18.72-5.92-16.16-1.92,24.96-1.92,24.96-3.68-24.64-10.08-24.96-8.96-5.12-10.88-4.8-9.28,8.32-11.2,11.36,4-9.44,0-11.36-3.36-8.64-7.52-6.56-23.2,20.8-23.2,20.8,7.36-21.76,4-26.08-22.4,5.28-22.4,5.28,19.68-12.64,13.44-14.56-10.08-2.4-16-9.12,11.04-8.32,7.36-12.32-22.4-10.08-22.4-10.08,20.48-3.2,22.4-10.4-18.72-23.52-19.36-23.84,25.28,11.04,30.88,0-15.36-42.72-15.36-42.72,26.56,16,34.72,9.28.8-34.72.8-34.72,10.4,28.32,13.92,28.96,4.48-4.32,7.04-4.64,5.6,6.08,8.16,1.12,11.2-37.12,11.2-37.12.48,41.12,3.2,39.52S618.852,105.56,618.852,105.56Z" transform="translate(-434 -64)" fill="none"/>
    <g id="Mask_Group_1" data-name="Mask Group 1" clip-path="url(#clip-path-2)">
      <g id="Ellipse_1" data-name="Ellipse 1" transform="translate(93 86)" fill="#001230" stroke="rgba(5,8,13,0.37)" stroke-width="20">
        <ellipse cx="83.5" cy="81.5" rx="83.5" ry="81.5" stroke="none"/>
        <ellipse cx="83.5" cy="81.5" rx="73.5" ry="71.5" fill="none"/>
      </g>
      <circle id="Ellipse_5" data-name="Ellipse 5" cx="61.5" cy="61.5" r="61.5" transform="translate(96 89)" fill="#0d8da1" style="mix-blend-mode: multiply;isolation: isolate"/>
    </g>
    <path id="Path_1" data-name="Path 1" d="M615.693,172c-7.715-2.66-1.693,22.7-1.693,22.7s10.887,17.049,4.087,27.049S602.8,217.9,590.4,225.9s5.2,19.6,7.6,25.2-6.4,11.6-11.2,11.6,7.079,20.233,15.326,19.169,47.617-15.961,47.883-57.992S623.407,174.664,615.693,172Z" transform="translate(-433 -74)" fill="rgba(6,60,102,0.1)" opacity="0.72"/>
    <g id="Mask_Group_2" data-name="Mask Group 2" transform="translate(-3 -9)" clip-path="url(#clip-path-3)">
      <g id="Ellipse_3" data-name="Ellipse 3" transform="translate(144 107)" fill="#064164" stroke="rgba(1,19,34,0.64)" stroke-width="9" opacity="0.4">
        <circle cx="28.5" cy="28.5" r="28.5" stroke="none"/>
        <circle cx="28.5" cy="28.5" r="24" fill="none"/>
      </g>
    </g>
  </g>
</svg>
